<?xml version="1.0" standalone="no"?><!DOCTYPE svg PUBLIC "-//W3C//DTD SVG 1.1//EN" "http://www.w3.org/Graphics/SVG/1.1/DTD/svg11.dtd"><svg t="1656313449435" class="icon" viewBox="0 0 1024 1024" version="1.1" xmlns="http://www.w3.org/2000/svg" p-id="2743" xmlns:xlink="http://www.w3.org/1999/xlink" width="200" height="200"><defs><style type="text/css">@font-face { font-family: feedback-iconfont; src: url("//at.alicdn.com/t/font_1031158_u69w8yhxdu.woff2?t=1630033759944") format("woff2"), url("//at.alicdn.com/t/font_1031158_u69w8yhxdu.woff?t=1630033759944") format("woff"), url("//at.alicdn.com/t/font_1031158_u69w8yhxdu.ttf?t=1630033759944") format("truetype"); }
</style></defs><path d="M787.3 225.6h176.1v726.6c0 37.6-28.5 66.1-66.1 66.1H192.9c-37.6 0-66.1-28.5-66.1-66.1V71.8c0-37.6 28.5-66.1 66.1-66.1h550.5v176.1h44.2v43.9l-0.3-0.1z m-66.2-21.9V27.6H192.9c-24.3 0-44.2 19.8-44.2 44.2v880.5c0 24.3 19.8 44.2 44.2 44.2h704.4c24.3 0 44.2-19.8 44.2-44.2V247.6H765.3v-44.2h-44.2v0.3z" fill="#9FA0A6" p-id="2744"></path><path d="M104.8 115.6H457c24.3 0 44.2 19.8 44.2 44.2V512c0 24.3-19.8 44.2-44.2 44.2H104.8c-24.3 0-44.2-19.8-44.2-44.2V159.5c0.1-24 19.9-43.9 44.2-43.9z" fill="#FF822E" p-id="2745"></path><path d="M203.4 510.8c-15.3 0-27.9-12.6-27.9-27.9v-263c0-15.3 12.6-27.9 27.9-27.9h27.9v290.6c-0.3 15.6-12.6 28.2-27.9 28.2z" fill="#FFFFFF" p-id="2746"></path><path d="M272.5 389.4h-94.7V229.8c0-22.2 18-40 40-40H271c52.6 0 96.8 40.3 101 91.7 2.1 27.6-7.2 55.3-26.1 75.7-19 20.5-45.7 32.2-73.4 32.2zM234 333.2h38.5c12 0 23.7-5.1 31.9-14.1 8.4-9 12.3-20.7 11.4-33.1-1.8-22.5-21.6-40-44.8-40h-37v87.2z" fill="#FFFFFF" p-id="2747"></path><path d="M214.8 886.1h660.5v44.2H214.8v-44.2z m0-110h660.5v44.2H214.8v-44.2z m0-110.2h660.5V710H214.8v-44.1z" fill="#9FA0A6" p-id="2748"></path></svg>